<?xml version="1.0" standalone="no"?><!DOCTYPE svg PUBLIC "-//W3C//DTD SVG 1.1//EN" "http://www.w3.org/Graphics/SVG/1.1/DTD/svg11.dtd"><svg t="1540017894532" class="icon" style="" viewBox="0 0 1024 1024" version="1.1" xmlns="http://www.w3.org/2000/svg" p-id="5225" xmlns:xlink="http://www.w3.org/1999/xlink" width="128" height="128"><defs><style type="text/css"></style></defs><path d="M931.615405 271.202749C803.928281 214.182081 194.186166 1010.002195 576.396147 703.781908 839.285556 493.15991 1008.536308 305.551044 931.615405 271.202749z" p-id="5226" fill="#ffffff"></path><path d="M651.805628 141.002384c-139.17169-13.676487-425.64012 783.203772-200.056362 522.767228C672.295288 409.147494 735.642035 149.241023 651.805628 141.002384z" p-id="5227" fill="#ffffff"></path><path d="M428.140569 18.824741c-138.959865 15.685237-230.125191 977.635019-86.487793 553.015136C449.59316 252.747421 511.848039 9.376555 428.140569 18.824741z" p-id="5228" fill="#ffffff"></path><path d="M447.152575 850.394057c-24.388457 71.8934-47.532573 107.35403-139.279137 101.927437-75.785034-4.481058-144.562467-74.040297-131.606387-148.845003 12.955056-74.801636 38.376029-132.85789 135.266753-102.123912C383.896902 724.307384 476.614583 763.54606 447.152575 850.394057z" p-id="5229" fill="#ffffff"></path></svg>