<?xml version="1.0" standalone="no"?><!DOCTYPE svg PUBLIC "-//W3C//DTD SVG 1.1//EN" "http://www.w3.org/Graphics/SVG/1.1/DTD/svg11.dtd"><svg t="1539934336675" class="icon" style="" viewBox="0 0 1024 1024" version="1.1" xmlns="http://www.w3.org/2000/svg" p-id="1705" xmlns:xlink="http://www.w3.org/1999/xlink" width="128" height="128"><defs><style type="text/css"></style></defs><path d="M390.314667 73.443556a452.494222 452.494222 0 0 1 227.356444-4.181334c-10.154667 102.741333 2.759111 209.635556 38.855111 316.245334a1907.057778 1907.057778 0 0 0-89.059555 24.462222C516.096 271.36 457.102222 159.203556 390.314667 73.415111z m-56.888889 19.911111c67.328 81.806222 127.317333 193.024 179.683555 333.653333a1155.868444 1155.868444 0 0 0-139.377777 56.746667c-43.52-111.104-111.701333-204.515556-199.850667-276.48a452.494222 452.494222 0 0 1 159.544889-113.891556z m363.861333 834.332444c-26.737778-170.752-63.630222-325.461333-110.762667-464.071111a1823.715556 1823.715556 0 0 1 90.140445-24.462222 891.960889 891.960889 0 0 0 220.359111 315.591111 452.864 452.864 0 0 1-199.736889 172.942222z m-54.414222 20.195556c-79.445333 23.950222-160.853333 25.031111-236.828445 6.769777 30.776889-140.572444 26.652444-284.814222-13.539555-416.768a1103.132444 1103.132444 0 0 1 139.690667-57.287111c47.303111 138.752 84.195556 294.542222 110.648888 467.313778zM84.309333 667.534222c-52.565333-144.497778-27.335111-298.325333 54.215111-415.658666 81.692444 66.844444 144.497778 153.884444 184.263112 257.905777-78.848 42.353778-158.350222 94.947556-238.478223 157.752889z m23.552 53.873778c78.677333-62.577778 156.416-114.858667 233.244445-156.842667 34.048 118.243556 37.262222 247.125333 10.353778 373.333334a454.343111 454.343111 0 0 1-243.598223-216.490667zM938.097778 352.056889c-64.085333-4.181333-139.320889 2.759111-225.792 20.736C678.741333 275.911111 665.799111 179.2 673.251556 86.385778a454.058667 454.058667 0 0 1 264.846222 265.671111z m17.664 58.680889c23.125333 100.750222 10.552889 203.178667-30.72 292.352a835.584 835.584 0 0 1-191.943111-276.48c87.864889-17.578667 162.133333-22.812444 222.663111-15.872z" p-id="1706" fill="#ffffff"></path></svg>