<?xml version="1.0" standalone="no"?><!DOCTYPE svg PUBLIC "-//W3C//DTD SVG 1.1//EN" "http://www.w3.org/Graphics/SVG/1.1/DTD/svg11.dtd"><svg t="1540018728654" class="icon" style="" viewBox="0 0 1024 1024" version="1.1" xmlns="http://www.w3.org/2000/svg" p-id="16055" xmlns:xlink="http://www.w3.org/1999/xlink" width="128" height="128"><defs><style type="text/css"></style></defs><path d="M916.954653 199.015943a513.375953 513.375953 0 0 0-47.877851-53.716319 20.796987 20.796987 0 0 0-0.825813-0.835443c-69.144323-67.172485-155.671633-113.237402-250.242788-133.215799-107.2304-22.641221-216.435045-10.964283-315.778095 33.783667a513.183343 513.183343 0 0 0-103.279502 62.056302c-114.193225 88.272832-186.094269 221.483816-197.270422 365.478511-8.161818 104.945572 15.649504 208.196183 68.857817 298.585309a518.927915 518.927915 0 0 0 36.485012 53.860777c81.808383 105.901396 199.808049 174.679761 332.258226 193.663813a521.058655 521.058655 0 0 0 73.957148 5.294348c112.491041 0 221.057668-36.908753 311.747745-107.025753a512.393645 512.393645 0 0 0 88.337838-87.15329c63.130098-79.578931 100.768359-175.47909 108.865171-277.328468 10.143286-127.035449-27.234952-252.556507-105.234486-353.447655z m54.778078 349.422121a467.294183 467.294183 0 0 1-8.491661 58.981776c-3.204537 2.308904-6.555938 4.410752-9.941047 6.44278-3.346586 2.007952-6.80633 3.813664-10.297373 5.55437-1.719038 0.854704-3.462152 1.651625-5.207674 2.441323-0.987123 0.394849-1.974245 0.789698-2.96859 1.165286-6.994124 2.694122-14.200119 4.824862-21.466304 6.65465-3.536788 0.893226-7.104875 1.637179-10.685 2.342611-1.755152 0.351512-3.522342 0.652464-5.279901 0.953416-0.739138 0.127604-3.144346 0.479116-4.417976 0.671725-9.690654 1.194178-19.475206 1.810527-29.271795 1.885163-7.181918-27.025489-24.957347-76.96426-66.938946-133.591387 5.520663-15.331698 9.461931-31.258078 12.801294-47.167605 6.067192-28.799902 9.994014-58.066882 13.355045-87.288117a1559.641585 1559.641585 0 0 0 7.863274-92.888231c24.588982-1.945354 55.517217-4.930797 72.563138-6.620944 52.132109 83.484084 76.28772 181.459608 68.383516 280.463184zM309.640748 796.333427c-29.599231-22.699003-75.965099-61.244935-113.131467-105.667858-0.462262-29.897775 0.849888-59.913523 2.942107-89.693325a1007.031123 1007.031123 0 0 1 4.283149-45.824154c0.440594-3.765511 0.914894-7.53343 1.401232-11.294127 0.048152-0.310582 0.10112-0.719877 0.175756-1.254368 0.264838-1.933316 0.551344-3.861816 0.833035-5.783093a743.996671 743.996671 0 0 1 4.148323-25.123473 561.956827 561.956827 0 0 1 10.716298-47.415589c1.950169-7.128951 4.114616-14.195304 6.440373-21.208689 25.836127-11.082256 69.373046-28.530249 128.809862-48.104167a67692.561812 67692.561812 0 0 1 147.803544 131.665294 18889.757616 18889.757616 0 0 1 49.750976 44.584233c2.482252 2.234268 4.957281 4.475758 7.439534 6.714841-3.972566 36.480197-10.872794 96.634482-17.965631 143.563732a539.828429 539.828429 0 0 1-17.606895 7.957171c-1.097873 0.455039-5.270271 2.210191-6.177943 2.576149a772.047804 772.047804 0 0 1-10.398493 4.143507 914.253641 914.253641 0 0 1-21.401298 8.026992c-27.283104 9.897709-54.977911 18.639763-82.819582 26.823249-31.477171 9.245245-63.20955 17.898217-95.175467 25.313675-0.031299-0.014446-0.048152-0.004815-0.067413 0z m116.711592-405.151208c-13.359861-11.883992-26.724537-23.760762-40.084399-35.635124 5.094515-27.321626 14.094184-70.538333 28.142623-122.066129 6.681134-3.72699 13.489872-7.249332 20.305833-10.711483a809.228618 809.228618 0 0 1 44.290504-20.775319c0.917302-0.397257 1.837011-0.78729 2.754312-1.179731 0.849888-0.356327 2.012767-0.852296 2.482252-1.047313a811.751799 811.751799 0 0 1 9.996422-4.064056c28.087248-11.224306 56.911226-20.715128 86.363592-27.656285a441.453241 441.453241 0 0 1 22.077839-4.572062 387.939161 387.939161 0 0 1 12.093455-1.979061l0.9486-0.144457 0.536899-0.067413c2.007952-0.255207 4.025534-0.4743 6.038301-0.695801 15.09816-1.646809 30.321515-2.111479 45.482273-1.223069h0.182979c51.612063 31.640889 91.638679 69.411568 114.40991 93.304749-1.177324 31.25567-3.589755 62.506526-6.661873 93.624962a1337.223614 1337.223614 0 0 1-4.709297 41.208755l-0.038522 0.286506-0.678947 4.87783a940.511101 940.511101 0 0 1-1.478277 10.030129 824.902198 824.902198 0 0 1-3.548826 21.413336c-4.148322 23.163673-9.151348 46.568108-17.698385 68.564087-34.465023 11.939368-92.423562 30.812669-155.476616 46.264749-54.720296-49.825612-110.456605-98.579836-165.730652-147.7578z m-103.349323-299.99858c59.78592-26.929185 123.534775-40.563514 188.085366-40.563513a466.824698 466.824698 0 0 1 132.613896 19.330748 1636.444534 1636.444534 0 0 1-9.187463 39.937534c-52.632893 2.889139-104.993725 18.89497-153.418105 38.107745-27.887416 11.065403-55.733902 23.267201-82.251384 37.56844-21.747995-10.201069-57.373488-23.471848-106.130119-30.608022-0.014446-10.398493 0.216685-20.801802 0.847481-31.181034 0.250392-4.174806 0.645241-8.339982 1.105095-12.495527 0.173348-1.054536 0.606719-4.035164 0.801736-5.065624 0.105935-0.563382 0.243169-1.119541 0.358735-1.680516a459.430909 459.430909 0 0 1 27.174762-13.350231z m-93.095287 55.943365a452.203246 452.203246 0 0 1 13.427274-9.996421c-0.10112 5.831246-0.10112 11.62397-0.11075 17.305943-0.004815 4.46372 0.038522 8.92744 0.105935 13.393568-23.498332 17.305944-60.748966 50.511783-98.743554 107.622841-8.03903 2.304088-16.029907 4.76708-23.975039 7.350452-3.560864 1.158063-7.143397 2.34261-10.72593 3.556048 30.00371-53.473151 70.600931-101.030789 120.022064-139.232431z m-177.77114 329.357049a460.613049 460.613049 0 0 1 26.743798-122.70174l0.15168-0.079451a161.52214 161.52214 0 0 1 12.8663-7.037462c2.113887-1.047313 4.263888-2.027213 6.406666-3.004705 1.10028-0.495969 2.205376-0.984715 3.310472-1.466238l0.912486-0.370773c10.384048-4.256665 20.996819-7.957171 31.66015-11.443398 7.16025 21.1172 20.948667 54.075055 46.883506 96.261301-18.088419 52.551034-25.756676 108.465507-30.285402 163.701033-2.357056 28.718043-3.763104 57.645549-3.801625 86.524902-13.913613 6.68595-32.955447 14.717756-56.749916 22.176551-30.971572-69.536764-44.088264-145.530755-38.098115-222.56002z m394.31212 492.082997a463.225312 463.225312 0 0 1-103.330062-27.218099c-1.678108-19.581141-4.771895-61.403838-4.482981-101.105424 26.635455-6.527047 53.092747-13.834161 79.398359-21.536125 48.554391-14.209749 97.835882-29.738872 143.855054-51.364079 28.583217 19.819495 81.117397 50.747729 143.698559 61.991296 0.089082 5.970888 0.062598 11.939368-0.043337 17.878956a419.122603 419.122603 0 0 1-1.109911 23.332206 367.94391 367.94391 0 0 1-1.153248 12.404038c-0.154087 1.434939-0.341881 2.860248-0.512822 4.287964 0.062598-0.813774-0.775252 5.258233-0.912486 6.108121-2.388355 14.987409-6.01904 29.770171-11.144855 44.047334-76.201045 32.228347-159.964412 43.255228-244.26227 31.173812z m427.207377-170.225672a461.542388 461.542388 0 0 1-79.627083 78.553286 468.900063 468.900063 0 0 1-44.415699 30.434674c3.33214-19.285004 4.860977-38.93115 5.366576-58.261899 0.315398-11.977889 0.247984-24.08579-0.476708-36.119055 26.888255-25.137918 71.848076-72.011794 100.946522-128.0635 3.527157 0.069821 7.0495 0.098712 10.564619 0.050559 26.871402-0.361142 53.742804-4.449274 78.801271-13.297263a458.243955 458.243955 0 0 1-71.159498 126.703198z" p-id="16056" fill="#ffffff"></path></svg>