<?xml version="1.0" standalone="no"?><!DOCTYPE svg PUBLIC "-//W3C//DTD SVG 1.1//EN" "http://www.w3.org/Graphics/SVG/1.1/DTD/svg11.dtd"><svg t="1541422203303" class="icon" style="" viewBox="0 0 1024 1024" version="1.1" xmlns="http://www.w3.org/2000/svg" p-id="2838" xmlns:xlink="http://www.w3.org/1999/xlink" width="200" height="200"><defs><style type="text/css"></style></defs><path d="M333.312 858.112L171.52 696.32C71.68 596.992 71.68 434.176 171.52 334.336l148.992-148.992c99.328-99.328 262.656-99.328 361.984 0l161.792 161.792c99.328 99.328 99.328 262.656 0 361.984l-148.992 148.992c-99.84 99.84-262.656 99.84-361.984 0z" fill="#656EFF" p-id="2839"></path><path d="M182.272 763.392L373.76 652.8l66.56-103.424c6.144 16.384 17.92 30.208 33.792 37.888l29.184 14.336-67.072 103.424c-3.584 5.632-8.192 9.728-13.824 13.312l-199.68 115.2c-6.656 3.584-13.312 5.632-20.48 5.632-13.824 0-27.648-7.168-35.328-20.48-10.752-19.456-4.096-44.032 15.36-55.296zM773.12 326.144c-52.224 0-94.72-42.496-94.72-94.72s42.496-94.72 94.72-94.72 94.72 42.496 94.72 94.72c0.512 52.224-41.984 94.72-94.72 94.72z m-45.056 91.648c15.36-13.824 23.552-33.792 22.528-54.272l44.032 29.696 81.92-90.112c15.36-16.384 40.96-17.92 57.344-2.56 16.384 14.848 17.92 40.96 2.56 57.344l-105.472 115.712c-8.192 8.704-18.944 13.312-30.208 13.312-7.68 0-15.872-2.048-22.528-6.656l-68.608-46.08 18.432-16.384z m-84.48 221.696l-157.696-76.8c-12.288-6.144-20.48-17.408-22.528-31.232-2.048-13.312 3.072-27.136 13.312-35.84l139.776-123.904-83.456-55.296-121.856 34.816c-21.504 6.144-44.032-6.144-50.176-27.648-6.144-21.504 6.144-44.032 27.648-50.176l139.776-39.936c11.264-3.072 23.552-1.536 33.792 5.12l142.848 94.72c10.752 7.168 17.408 18.432 17.92 31.232 1.024 12.8-4.096 25.088-13.312 33.28l-133.632 118.784 143.36 69.632c10.24 5.12 17.92 14.336 20.992 25.088 3.072 11.264 1.536 23.04-4.608 32.768l-108.544 175.616c-7.68 12.288-20.992 19.456-34.816 19.456-7.168 0-14.848-2.048-21.504-6.144-18.944-11.776-25.088-36.864-13.312-55.808l86.016-137.728z" fill="#FFD951" p-id="2840"></path></svg>