<?xml version="1.0" standalone="no"?><!DOCTYPE svg PUBLIC "-//W3C//DTD SVG 1.1//EN" "http://www.w3.org/Graphics/SVG/1.1/DTD/svg11.dtd"><svg t="1540018482463" class="icon" style="" viewBox="0 0 1024 1024" version="1.1" xmlns="http://www.w3.org/2000/svg" p-id="15169" xmlns:xlink="http://www.w3.org/1999/xlink" width="128" height="128"><defs><style type="text/css"></style></defs><path d="M602.520131 305.927621" fill="#ffffff" p-id="15170"></path><path d="M741.34799 281.625122" fill="#ffffff" p-id="15171"></path><path d="M693.636339 258.308067c61.23669 0 110.884436-49.649793 110.884436-110.891599 0-61.235666-49.64877-110.884436-110.884436-110.884436-61.248969 0-110.896716 49.64877-110.896716 110.884436C582.732459 208.658274 632.387369 258.308067 693.636339 258.308067L693.636339 258.308067z" fill="#ffffff" p-id="15172"></path><path d="M693.636339 258.308067" fill="#ffffff" p-id="15173"></path><path d="M876.037599 226.376821c-63.675228 89.182158-148.934031 99.508341-240.681618 45.046962-6.245238-3.706415-33.955346-18.97312-40.08802-22.61916-147.595546-87.612407-295.013037-53.255924-393.874649 85.194334-42.014906 58.888202 55.149041 114.701368 96.691179 56.500828 51.080376-71.529103 116.03576-92.228541 187.069583-69.570495-36.374442 63.132876-68.172659 125.885082-113.047706 215.040634-44.880163 89.157599-143.980205 160.357198-239.197824 104.665805-68.706825-40.151465-130.668015 58.551534-62.165852 98.581226 129.99468 75.979462 282.418184 29.324886 360.231411-69.434395 2.697435 1.438769 5.552459 2.745531 8.677637 3.837398 63.569828 22.145369 146.897651 81.105203 172.284855 102.004185 25.382087 20.895913 68.998467 127.350456 94.89323 180.836625 31.4155 64.903196 132.877333 17.633612 101.342106-47.544853-29.352515-60.684104-78.631872-181.800579-117.062136-212.444507-30.830169-24.578792-90.686419-70.315462-141.456732-96.264461 34.350342-66.531276 70.111824-132.334981 107.759259-197.007933 119.999025 36.765345 234.054687-6.548136 315.289849-120.333646C1014.750847 223.984331 917.60839 168.169117 876.037599 226.376821L876.037599 226.376821z" fill="#ffffff" p-id="15174"></path><path d="M876.037599 226.376821" fill="#ffffff" p-id="15175"></path></svg>