<?xml version="1.0" standalone="no"?><!DOCTYPE svg PUBLIC "-//W3C//DTD SVG 1.1//EN" "http://www.w3.org/Graphics/SVG/1.1/DTD/svg11.dtd"><svg t="1540018131400" class="icon" style="" viewBox="0 0 1024 1024" version="1.1" xmlns="http://www.w3.org/2000/svg" p-id="8102" xmlns:xlink="http://www.w3.org/1999/xlink" width="128" height="128"><defs><style type="text/css"></style></defs><path d="M957.559287 466.432175c0.540306 0 1.083681-0.084934 1.626034-0.084934C937.370479 245.021459 754.995825 71.368444 530.15908 62.272275 542.905382 287.535739 729.104131 466.432175 957.559287 466.432175zM957.644221 523.917424c-259.878842 0-471.50982-204.073862-484.827127-460.646402C251.062548 82.375126 75.756893 262.414595 63.496661 486.108307c261.959224 2.39556 473.992361 211.916481 481.006102 472.764394 228.740658-16.480346 409.749198-203.762777 416.306544-435.098539C959.725626 523.774161 958.69925 523.917424 957.644221 523.917424zM63.894727 543.677467c16.22452 224.693482 197.262736 403.162176 423.0092 415.595346C480.116337 730.188324 294.005592 546.3309 63.894727 543.677467z" p-id="8103" fill="#ffffff"></path></svg>